<?xml version="1.0" encoding="utf-8"?>
<!-- Generator: Adobe Illustrator 24.3.0, SVG Export Plug-In . SVG Version: 6.00 Build 0)  -->
<svg version="1.0" id="Layer_1" xmlns="http://www.w3.org/2000/svg" xmlns:xlink="http://www.w3.org/1999/xlink" x="0px" y="0px"
	 viewBox="0 0 110 110" style="enable-background:new 0 0 110 110;" xml:space="preserve">
<style type="text/css">
	.st0{fill-rule:evenodd;clip-rule:evenodd;fill:#FFFFFF;}
	.st1{fill-rule:evenodd;clip-rule:evenodd;fill:#057D36;}
</style>
<polygon id="Logotype-bg" class="st0" points="0,110 110,110 110,0 0,0 "/>
<path class="st1" d="M57.4,62.9c0.1,0.2,0.4,0.4,0.6,0.5h-1.4c-0.2,0-0.7-0.1-1.1-0.8c-0.5-0.7-1.9-2.8-1.9-2.8l-1.2,0v2.4
	c0,0.4,0.2,0.8,0.6,1.1h-1.4c0,0-0.4,0-0.6-0.4c-0.1-0.2-0.2-0.5-0.2-0.7v-6c0-0.5-0.3-0.9-0.5-1h1.3h1.6c1.8,0,2.9,0.8,2.9,2.2
	c0,1-0.4,1.6-1.3,2l-0.1,0C54.9,59.5,57.2,62.7,57.4,62.9L57.4,62.9z M53.2,58.7c0.4,0,1.5-0.1,1.5-1.2c0-0.9-1-1-1.4-1h-0.9v2.2
	H53.2L53.2,58.7z M90.5,62.3v-6c0-0.2-0.1-0.6-0.3-0.8c-0.2-0.3-0.5-0.4-0.5-0.4h-1.3c0.3,0.1,0.5,0.5,0.5,1v2.4H85v-2.3
	c0-0.2-0.1-0.6-0.3-0.8c-0.2-0.3-0.5-0.4-0.5-0.4h-1.3c0.3,0.1,0.5,0.5,0.5,1v6c0,0.3,0.1,0.5,0.2,0.7c0.2,0.4,0.6,0.4,0.6,0.4h1.4
	c-0.4-0.3-0.6-0.7-0.6-1.1v-2.4H89v2.4c0,0.3,0.1,0.5,0.2,0.7c0.2,0.4,0.6,0.4,0.6,0.4h1.4C90.8,63.2,90.5,62.7,90.5,62.3L90.5,62.3
	z M65.3,62.9c0.1,0.2,0.4,0.4,0.6,0.5h-1.4c-0.2,0-0.7-0.1-1.1-0.8c-0.5-0.7-1.9-2.8-1.9-2.8l-1.2,0v2.4c0,0.4,0.2,0.8,0.6,1.1h-1.4
	c0,0-0.4,0-0.6-0.4c-0.1-0.2-0.2-0.5-0.2-0.7v-6c0-0.5-0.3-0.9-0.5-1h1.3h1.6c1.8,0,2.9,0.8,2.9,2.2c0,1-0.4,1.6-1.3,2l-0.1,0
	C62.8,59.5,65.1,62.7,65.3,62.9L65.3,62.9z M61.1,58.7c0.4,0,1.5-0.1,1.5-1.2c0-0.9-1-1-1.4-1h-0.9v2.2H61.1L61.1,58.7z M74.5,56.5
	h3c0,0,0,5.8,0,5.8c0,0.3,0.1,0.5,0.2,0.7c0.2,0.4,0.6,0.4,0.6,0.4h1.4c-0.4-0.3-0.6-0.7-0.6-1.1v-5.9h2.6l0.6-1.3h-7L74.5,56.5z
	 M70.1,55.1c2.5,0,4.4,1.9,4.4,4.2c0,2.4-1.9,4.2-4.4,4.2c-2.5,0-4.4-1.9-4.4-4.2C65.7,56.9,67.6,55.1,70.1,55.1L70.1,55.1z
	 M70.1,62.2c1.4,0,2.9-1,2.9-2.9c0-1.4-1.1-2.9-2.9-2.9c-2,0-2.9,1.7-2.9,2.9C67.2,61.3,68.9,62.2,70.1,62.2L70.1,62.2z M48.6,56.5
	l0.6-1.3h-5.2v8.2h5.2l0-1.2h-3.6v-2.3H48l0.6-1.2h-3.1v-2.2H48.6z M38.2,55.2c2.7,0,4.4,1.6,4.4,4.1c0,3.1-2.2,4.2-4.3,4.2l-3.4,0
	v-8.2C35,55.2,38.1,55.2,38.2,55.2L38.2,55.2z M38.2,62.2c1,0,2.9-0.6,2.9-2.9c0-2.8-2.9-2.8-3-2.8h-1.6v5.7H38.2L38.2,62.2z
	 M32.7,56.5l0.6-1.3h-5.2v8.2h5.2l0-1.2h-3.6v-2.3h2.5l0.6-1.2h-3.1v-2.2H32.7z M24.4,62.1c-0.4,0.1-1,0.2-1.2,0.2
	c-1.4,0-2.9-0.9-2.9-2.9c0-1.9,1.4-2.9,2.8-2.9c1.1,0,1.8,0.3,2.6,0.7l0.6-1.3c-0.6-0.3-1.2-0.5-1.7-0.6c-0.5-0.1-1-0.2-1.5-0.2
	c-2.9,0-4.4,2.1-4.4,4.2c0,2,1.5,4.2,4.5,4.2c0.5,0,1-0.1,1.5-0.2c0.5-0.1,1.1-0.3,1.7-0.6l-0.5-1.3C25.6,61.7,24.9,61.9,24.4,62.1
	L24.4,62.1z M96.2,44c0-1.5-1.2-2.8-2.7-2.8h-22c-1.5,0-2.7-1.2-2.7-2.7v-22c0-1.5-1.2-2.8-2.7-2.8H44c-1.5,0-2.7,1.2-2.7,2.8v22
	c0,1.5-1.2,2.7-2.8,2.7h-22c-1.5,0-2.8,1.2-2.8,2.8v22c0,1.5,1.2,2.7,2.8,2.7h22c1.5,0,2.8,1.2,2.8,2.8v22c0,1.5,1.2,2.7,2.7,2.7h22
	c1.5,0,2.7-1.2,2.7-2.7v-22c0-1.5,1.2-2.8,2.7-2.8h22c1.5,0,2.7-1.2,2.7-2.7V44z M0,110h110V0H0V110z"/>
</svg>
