<?xml version="1.0" encoding="UTF-8"?>
<svg xmlns="http://www.w3.org/2000/svg" xmlns:xlink="http://www.w3.org/1999/xlink" id="Layer_1" viewBox="0 0 366.42 45.98">
  <defs>
    <style>.cls-1{fill:url(#linear-gradient);}.cls-2{fill:#1b1e2a;}.cls-3{fill:url(#linear-gradient-3);}.cls-4{fill:url(#linear-gradient-2);}</style>
    <linearGradient id="linear-gradient" x1="-2.51" y1="38.28" x2="34.89" y2="10.49" gradientUnits="userSpaceOnUse">
      <stop offset="0" stop-color="#1fa0eb"></stop>
      <stop offset="1" stop-color="#1278ff"></stop>
    </linearGradient>
    <linearGradient id="linear-gradient-2" x1="11.7" y1="57.41" x2="49.1" y2="29.62" xlink:href="#linear-gradient"></linearGradient>
    <linearGradient id="linear-gradient-3" x1=".12" y1="41.83" x2="37.52" y2="14.03" xlink:href="#linear-gradient"></linearGradient>
  </defs>
  <path class="cls-2" d="m281.21,41.02c-1.04,0-2.07-.18-3.03-.57-4.26-1.76-6.74-5.59-6.73-9.84l.02-24.58h7.01c1.56,0,2.82,1.27,2.82,2.82l-.02,20.27c0,2.28,1.96,4.14,4.37,4.14h15.06c2.41,0,4.38-1.86,4.38-4.14l.02-23.09h7c1.56,0,2.82,1.27,2.82,2.82l-.02,21.75c0,5.74-4.64,10.41-10.34,10.41h-23.36Z"></path>
  <path class="cls-2" d="m197.91,29.12c0,.09,0,.19-.02.28,0,.08-.01.16-.02.24-.03.21-.07.41-.13.61-.01.04-.03.09-.04.13-.24.72-.69,1.35-1.28,1.83-.05.04-.1.08-.15.12-.16.12-.33.23-.51.33-.08.05-.17.09-.25.13-.14.07-.29.13-.43.18-.16.06-.32.11-.49.15-.08.02-.15.04-.23.05-.25.04-.51.07-.78.07-.02,0-.03,0-.04,0h-17.44c-2.41,0-4.37-1.86-4.37-4.14v-1.07s.01,0,.01,0v-4.52s0-4.52,0-4.52h-.01s0-1.08,0-1.08c0-2.28,1.96-4.14,4.37-4.14h17.44s.03,0,.04,0c.27,0,.52.03.78.07.08.01.16.03.23.05.17.04.33.09.49.15.15.05.29.11.43.18.09.04.17.09.25.13.18.1.35.21.51.33.05.04.1.08.15.12.58.49,1.03,1.12,1.28,1.83.02.04.03.09.04.13.06.2.1.4.13.61.01.08.02.16.02.24,0,.09.02.18.02.28v5.6s0,5.6,0,5.6Zm9.84-12.68c0-2.79-1.07-5.41-3.02-7.37-1.94-1.96-4.54-3.04-7.31-3.04h-25.21c-2.77,0-5.36,1.08-7.31,3.04-1.95,1.96-3.02,4.58-3.01,7.37v7.08s0,7.08,0,7.08c0,2.79,1.07,5.41,3.01,7.37,1.94,1.96,4.54,3.04,7.31,3.04h25.21c2.77,0,5.36-1.08,7.31-3.04,1.95-1.96,3.02-4.58,3.02-7.37v-7.08s0-7.08,0-7.08Z"></path>
  <path class="cls-2" d="m120.78,6.03l-.03,34.99h33.11v-7.91s-23.3,0-23.3,0l.02-24.26c0-1.56-1.26-2.82-2.82-2.82h-6.98Z"></path>
  <path class="cls-2" d="m228.98,20.32h19.57c.95,0,3.84,0,3.84-3v-1.14c0-.91-.25-1.62-.75-2.12-.59-.59-1.51-.88-2.82-.88h-19.83v5.19s0,1.95,0,1.95Zm-.01,13.41h19.89c2.37,0,3.58-1.03,3.58-3.06v-1.21c0-2.13-1.3-3.21-3.88-3.21h-19.56l-.02,5.14v2.34Zm-9.2,7.24l.03-34.87h31.04c3.53,0,5.95.7,7.4,2.15,1.25,1.25,1.85,3.15,1.85,5.81v2.48c0,2.54-.94,4.51-2.78,5.87l-.79.58.82.53c1.99,1.3,3,3.32,3,6v2.95c0,5.87-2.61,8.48-8.44,8.48h-32.13Z"></path>
  <path class="cls-2" d="m107.9,21.78h-21.32v5.89s11.73,0,11.73,0v1.45c0,2.28-1.97,4.14-4.38,4.14h-16.08c-1.22,0-2.35-.46-3.18-1.29-.77-.77-1.19-1.78-1.19-2.84v-10.13s-.03-.03-.03-.03v-1.02c0-2.28,1.9-4.14,4.23-4.14h7.25s9.03,0,9.03,0c2.17,0,3.97,1.5,4.31,3.46h9.61v-.82c0-2.79-1.07-5.41-3.01-7.37-1.83-1.84-4.23-2.91-6.8-3.03h-23.77s-.04,0-.06,0h-.3c-2.68,0-5.19,1.08-7.08,3.04-1.88,1.96-2.92,4.58-2.92,7.37v7.08s0,7.08,0,7.08c0,2.79,1.04,5.41,2.92,7.37,1.88,1.96,4.4,3.04,7.08,3.04h11s12.59,0,12.59,0c2.82,0,5.57-1.16,7.54-3.17,1.91-1.96,2.93-4.52,2.87-7.24v-8.83Z"></path>
  <path class="cls-2" d="m363.96,22.73c-1.59-1.59-3.72-2.47-5.98-2.47h-.74c-.16,0-.32-.02-.48-.02h-18.42c-.92,0-1.79-.35-2.4-.96-.53-.53-.82-1.22-.82-1.94v-1.31c0-1.6,1.46-2.9,3.23-2.9h14.66c1.78,0,3.23,1.3,3.23,2.9v.12s.01,0,.01,0h0s8.99,0,8.99,0v-1.39c0-.29-.01-.57-.04-.85-.13-2.06-.98-3.97-2.44-5.43-1.59-1.59-3.72-2.47-5.98-2.47h-22.26c-4.58,0-8.29,3.59-8.45,8.14v4.18c0,.07.01.15.01.22v.03c0,2.13.8,4.1,2.25,5.56,1.58,1.58,3.78,2.45,6.19,2.45h19.71c.92,0,1.79.35,2.4.96.53.53.82,1.22.82,1.94v1.82c0,1.6-1.46,2.9-3.23,2.9h-15.94c-1.78,0-3.22-1.3-3.22-2.9v-.43s-8.99,0-8.99,0v1.68c0,2.26.87,4.39,2.46,5.98,1.59,1.59,3.72,2.47,5.98,2.47h23.47c4.58,0,8.29-3.59,8.45-8.14v-4.18c0-2.26-.87-4.39-2.46-5.98"></path>
  <path class="cls-1" d="m17.16,7.39L.95,35.48c-2.7,4.67.67,10.51,6.07,10.51h2.01l8.14-14.1c4.38-7.58,4.38-16.92,0-24.49"></path>
  <path class="cls-4" d="m11.51,45.98h32.43c5.39,0,8.76-5.84,6.07-10.51l-1.18-2.05h-15.93c-8.75,0-16.84,4.67-21.21,12.25l-.18.31Z"></path>
  <path class="cls-3" d="m47.58,31.28L31.54,3.5c-2.7-4.67-9.44-4.67-12.13,0l-1,1.74,7.96,13.79c4.38,7.58,12.46,12.25,21.21,12.25Z"></path>
</svg>
