<?xml version="1.0" encoding="utf-8"?>
<!-- Generator: Adobe Illustrator 26.1.0, SVG Export Plug-In . SVG Version: 6.00 Build 0)  -->
<svg version="1.1" id="Layer_1" xmlns="http://www.w3.org/2000/svg" xmlns:xlink="http://www.w3.org/1999/xlink" x="0px" y="0px"
	 viewBox="0 0 38.6 6.5" style="enable-background:new 0 0 38.6 6.5;" xml:space="preserve">
<g>
	<path d="M13.2,0.2l1.3,0l-2.6,6.2l-1.6,0l2.4-5.9C12.9,0.3,13,0.2,13.2,0.2z"/>
	<path d="M15.7,0.2l1.3,0L15,4.9c0,0.1,0,0.3,0.2,0.3l4.9,0l-0.5,1.2l-6.1,0c-0.3,0-0.5-0.3-0.4-0.6l2.2-5.3
		C15.3,0.3,15.5,0.2,15.7,0.2z"/>
	<path d="M28.3,3.9l-4.7,0c-0.3,0-0.5,0.2-0.6,0.4l-0.3,0.8l5.2,0l-0.5,1.2l-6.8,0l2.3-5.5c0.2-0.4,0.6-0.7,1-0.7l6,0l-0.5,1.2
		l-4.7,0c-0.3,0-0.5,0.2-0.6,0.4l-0.3,0.8l5.2,0L28.3,3.9z"/>
	<g>
		<path d="M31,0.2l1.3,0l-0.9,2.2c-0.1,0.1,0,0.3,0.2,0.3l4,0c0.1,0,0.2-0.1,0.2-0.1l0.9-2.1c0.1-0.2,0.2-0.3,0.4-0.3l1.3,0
			l-2.3,5.5c-0.2,0.4-0.6,0.7-1,0.7l-7,0l0.5-1.2l5.8,0c0.2,0,0.3-0.1,0.4-0.3l0.4-1c0,0-5.1,0-5.5,0s-0.5-0.3-0.4-0.6l1.2-2.8
			C30.6,0.3,30.8,0.2,31,0.2z"/>
	</g>
	<path d="M10.4,0.2l-6.2,0c-0.9,0-1.6,0.5-2,1.2l2.5,0l0.9,0l3.9,0c0.2,0,0.3,0.2,0.2,0.3L9.3,2.6l-3.9,0l-2.1,0h0
		c-1,0-1.8,0.6-2.2,1.5L0.1,6.3l1.6,0l0.7-1.6c0.2-0.5,0.7-0.8,1.2-0.8l2,0l2,2.2c0.2,0.2,0.4,0.3,0.7,0.3l1.2,0L7.3,3.9l2.5,0
		c0.4,0,0.8-0.2,0.9-0.6l0.7-1.7C11.6,0.9,11.1,0.2,10.4,0.2z"/>
</g>
</svg>
